<svg width="90" height="90" viewBox="0 0 90 90" fill="none" xmlns="http://www.w3.org/2000/svg">
<rect width="90" height="90" rx="5" fill="#7A1919"/>
<path d="M32.3183 23.9883C32.5069 26.7433 30.4266 29.1296 27.6716 29.3183C24.9166 29.5069 22.5303 27.4266 22.3416 24.6716C22.153 21.9166 24.2333 19.5303 26.9883 19.3416C29.7433 19.153 32.1296 21.2333 32.3183 23.9883Z" fill="#D9D9D9"/>
<path d="M67.3183 23.9883C67.5069 26.7433 65.4266 29.1296 62.6716 29.3183C59.9166 29.5069 57.5303 27.4266 57.3416 24.6716C57.153 21.9166 59.2333 19.5303 61.9883 19.3416C64.7433 19.153 67.1296 21.2333 67.3183 23.9883Z" fill="#D9D9D9"/>
<path d="M67.3183 63.9883C67.5069 66.7433 65.4266 69.1296 62.6716 69.3183C59.9166 69.507 57.5303 67.4266 57.3416 64.6716C57.153 61.9166 59.2333 59.5303 61.9883 59.3416C64.7433 59.153 67.1296 61.2333 67.3183 63.9883Z" fill="#D9D9D9"/>
<path d="M33.3182 63.9883C33.5069 66.7433 31.4265 69.1296 28.6716 69.3183C25.9166 69.5069 23.5303 67.4266 23.3416 64.6716C23.1529 61.9166 25.2333 59.5303 27.9883 59.3416C30.7433 59.153 33.1296 61.2333 33.3182 63.9883Z" fill="#D9D9D9"/>
<path d="M50.3182 44.9883C50.5069 47.7433 48.4265 50.1296 45.6716 50.3183C42.9166 50.507 40.5303 48.4266 40.3416 45.6716C40.1529 42.9166 42.2333 40.5303 44.9883 40.3416C47.7433 40.153 50.1296 42.2333 50.3182 44.9883Z" fill="#D9D9D9"/>
</svg>
