<svg width="90" height="90" viewBox="0 0 90 90" fill="none" xmlns="http://www.w3.org/2000/svg">
<rect width="90" height="90" rx="5" fill="#7A1919"/>
<path d="M33.8971 28.756C34.0858 31.511 32.0054 33.8973 29.2504 34.0859C26.4955 34.2746 24.1092 32.1942 23.9205 29.4393C23.7318 26.6843 25.8122 24.298 28.5672 24.1093C31.3221 23.9206 33.7084 26.001 33.8971 28.756Z" fill="#D9D9D9"/>
<path d="M50.0237 44.6914C50.2123 47.4463 48.1319 49.8326 45.377 50.0213C42.622 50.21 40.2357 48.1296 40.047 45.3746C39.8583 42.6197 41.9387 40.2334 44.6937 40.0447C47.4487 39.856 49.835 41.9364 50.0237 44.6914Z" fill="#D9D9D9"/>
<path d="M67.0795 59.5607C67.2682 62.3157 65.1878 64.702 62.4328 64.8907C59.6779 65.0793 57.2915 62.999 57.1029 60.244C56.9142 57.489 58.9946 55.1027 61.7495 54.914C64.5045 54.7254 66.8908 56.8057 67.0795 59.5607Z" fill="#D9D9D9"/>
</svg>
